<?xml version="1.0" encoding="utf-8"?>
<svg width="15mm" height="15mm" version="1.1" style="shape-rendering:geometricPrecision; text-rendering:geometricPrecision; image-rendering:optimizeQuality; fill-rule:evenodd; clip-rule:evenodd" viewBox="2772.35 31.403 2091.853 2125.986" xmlns="http://www.w3.org/2000/svg">
  <defs>
    <style type="text/css">
   
    .str0 {stroke:white;stroke-width:79.38;stroke-linejoin:round;stroke-miterlimit:22.9256}
    .fil0 {fill:white}
    .fil1 {fill:#FEFEFE;fill-rule:nonzero}
   
  </style>
  </defs>
  <g id="Layer_x0020_1" transform="matrix(1, 0, 0, 1, 597.482544, -261.818146)">
    <path class="fil1" d="M 3323.195 1555.001 L 3060.835 1555.001 C 3044.745 1555.001 3031.655 1568.101 3031.655 1584.211 C 3031.655 1600.331 3044.745 1613.431 3060.835 1613.431 L 3323.195 1613.431 C 3339.285 1613.431 3352.375 1600.331 3352.375 1584.211 C 3352.375 1568.101 3339.285 1555.001 3323.195 1555.001 Z" style="paint-order: stroke; fill: rgb(255, 255, 255); stroke: rgb(0, 0, 0);"/>
    <path class="fil1" d="M 3323.195 1632.081 L 3060.835 1632.081 C 3044.745 1632.081 3031.655 1645.181 3031.655 1661.301 C 3031.655 1677.411 3044.745 1690.511 3060.835 1690.511 L 3323.195 1690.511 C 3339.285 1690.511 3352.375 1677.411 3352.375 1661.301 C 3352.375 1645.181 3339.285 1632.081 3323.195 1632.081 Z" style="paint-order: stroke; fill: rgb(255, 255, 255); stroke: rgb(0, 0, 0);"/>
    <path class="fil1" d="M 3323.195 1709.171 L 3060.835 1709.171 C 3044.745 1709.171 3031.655 1722.271 3031.655 1738.381 C 3031.655 1754.501 3044.745 1767.601 3060.835 1767.601 L 3323.195 1767.601 C 3339.285 1767.601 3352.375 1754.501 3352.375 1738.381 C 3352.375 1722.271 3339.285 1709.171 3323.195 1709.171 Z" style="paint-order: stroke; fill: rgb(255, 255, 255); stroke: rgb(0, 0, 0);"/>
    <path class="fil1" d="M 3264.735 1795.551 L 3119.305 1795.551 C 3103.205 1795.551 3090.115 1808.651 3090.115 1824.761 C 3090.115 1840.881 3103.205 1853.981 3119.305 1853.981 L 3264.735 1853.981 C 3280.835 1853.981 3293.915 1840.881 3293.915 1824.761 C 3293.915 1808.651 3280.835 1795.551 3264.735 1795.551 Z" style="paint-order: stroke; fill: rgb(255, 255, 255); stroke: rgb(0, 0, 0);"/>
    <path class="fil1" d="M 3429.815 855.361 C 3368.565 793.201 3286.835 758.271 3199.675 757.031 C 3018.475 754.331 2868.295 899.741 2864.895 1081.081 C 2863.425 1159.531 2889.885 1236.091 2939.415 1296.631 C 2989.705 1358.121 3017.395 1434.591 3017.395 1511.961 L 3017.395 1512.831 C 3017.395 1528.951 3030.485 1542.051 3046.585 1542.051 C 3062.675 1542.051 3075.765 1528.951 3075.765 1512.831 L 3075.765 1511.961 C 3075.765 1421.121 3043.375 1331.501 2984.565 1259.601 C 2943.815 1209.791 2922.035 1146.781 2923.255 1082.181 C 2926.055 932.981 3049.695 813.351 3198.845 815.461 C 3270.575 816.491 3337.835 845.241 3388.265 896.411 C 3438.735 947.621 3466.535 1015.461 3466.535 1087.421 C 3466.535 1149.481 3446.215 1207.911 3407.765 1256.391 C 3351.875 1326.871 3321.105 1414.521 3321.105 1503.191 L 3321.105 1512.831 C 3321.105 1528.951 3334.185 1542.051 3350.285 1542.051 C 3366.375 1542.051 3379.475 1528.951 3379.475 1512.831 L 3379.475 1503.191 C 3379.475 1427.651 3405.755 1352.911 3453.475 1292.731 C 3500.215 1233.811 3524.915 1162.811 3524.915 1087.421 C 3524.915 1000.001 3491.135 917.591 3429.815 855.361 L 3429.815 855.361 Z" style="paint-order: stroke; fill: rgb(255, 255, 255); stroke: rgb(0, 0, 0);"/>
  </g>
</svg>